<svg xmlns="http://www.w3.org/2000/svg" xmlns:xlink="http://www.w3.org/1999/xlink" width="150" zoomAndPan="magnify" viewBox="0 0 112.5 48.75" height="65" preserveAspectRatio="xMidYMid meet" version="1.0"><defs><g/><clipPath id="2172c9242b"><path d="M 0.0390625 0 L 111.964844 0 L 111.964844 48.5 L 0.0390625 48.5 Z M 0.0390625 0 " clip-rule="nonzero"/></clipPath><clipPath id="4ac22fd7d9"><path d="M 29 10 L 38 10 L 38 18 L 29 18 Z M 29 10 " clip-rule="nonzero"/></clipPath><clipPath id="ba3746bb2c"><path d="M 42.09375 13.585938 L 33.0625 21.394531 L 29.160156 16.878906 L 38.1875 9.070312 Z M 42.09375 13.585938 " clip-rule="nonzero"/></clipPath><clipPath id="5bd93a3784"><path d="M 42.09375 13.585938 L 33.0625 21.394531 L 29.160156 16.878906 L 38.1875 9.070312 Z M 42.09375 13.585938 " clip-rule="nonzero"/></clipPath><clipPath id="ed3556a349"><path d="M 29 9 L 39 9 L 39 17 L 29 17 Z M 29 9 " clip-rule="nonzero"/></clipPath><clipPath id="0053582eb6"><path d="M 42.09375 13.585938 L 33.0625 21.394531 L 29.160156 16.878906 L 38.1875 9.070312 Z M 42.09375 13.585938 " clip-rule="nonzero"/></clipPath><clipPath id="4456d33218"><path d="M 42.09375 13.585938 L 33.0625 21.394531 L 29.160156 16.878906 L 38.1875 9.070312 Z M 42.09375 13.585938 " clip-rule="nonzero"/></clipPath><clipPath id="08a546cd58"><path d="M 88 36.585938 L 91.378906 36.585938 L 91.378906 39.570312 L 88 39.570312 Z M 88 36.585938 " clip-rule="nonzero"/></clipPath><clipPath id="46f1641cf6"><path d="M 87 36.585938 L 90 36.585938 L 90 39.570312 L 87 39.570312 Z M 87 36.585938 " clip-rule="nonzero"/></clipPath><clipPath id="b71e057f1d"><path d="M 85 36.585938 L 88 36.585938 L 88 39.570312 L 85 39.570312 Z M 85 36.585938 " clip-rule="nonzero"/></clipPath><clipPath id="bbcf06dd7e"><path d="M 83 36.585938 L 86 36.585938 L 86 39.570312 L 83 39.570312 Z M 83 36.585938 " clip-rule="nonzero"/></clipPath><clipPath id="46b74de488"><path d="M 81 36.585938 L 85 36.585938 L 85 39.570312 L 81 39.570312 Z M 81 36.585938 " clip-rule="nonzero"/></clipPath><clipPath id="e55bdb8d78"><path d="M 80.1875 36.585938 L 83 36.585938 L 83 39.570312 L 80.1875 39.570312 Z M 80.1875 36.585938 " clip-rule="nonzero"/></clipPath><clipPath id="34ee369a93"><path d="M 72 17.222656 L 76.175781 17.222656 L 76.175781 23.9375 L 72 23.9375 Z M 72 17.222656 " clip-rule="nonzero"/></clipPath><clipPath id="0d746b180a"><path d="M 71.699219 17.222656 L 76 17.222656 L 76 23.9375 L 71.699219 23.9375 Z M 71.699219 17.222656 " clip-rule="nonzero"/></clipPath><clipPath id="b147ec4e43"><path d="M 39 33.023438 L 40.796875 33.023438 L 40.796875 34.515625 L 39 34.515625 Z M 39 33.023438 " clip-rule="nonzero"/></clipPath><clipPath id="66a1e8ddcd"><path d="M 37 33.023438 L 39 33.023438 L 39 34.515625 L 37 34.515625 Z M 37 33.023438 " clip-rule="nonzero"/></clipPath><clipPath id="5b60b39766"><path d="M 35 33.023438 L 37 33.023438 L 37 34.515625 L 35 34.515625 Z M 35 33.023438 " clip-rule="nonzero"/></clipPath><clipPath id="7c6912f6e0"><path d="M 33 33.023438 L 36 33.023438 L 36 34.515625 L 33 34.515625 Z M 33 33.023438 " clip-rule="nonzero"/></clipPath><clipPath id="2684982cb7"><path d="M 31.839844 33.023438 L 34 33.023438 L 34 34.515625 L 31.839844 34.515625 Z M 31.839844 33.023438 " clip-rule="nonzero"/></clipPath><clipPath id="217e57eaa2"><path d="M 33 37.414062 L 34.5625 37.414062 L 34.5625 38.90625 L 33 38.90625 Z M 33 37.414062 " clip-rule="nonzero"/></clipPath><clipPath id="257f3c9bb8"><path d="M 31 37.414062 L 33 37.414062 L 33 38.90625 L 31 38.90625 Z M 31 37.414062 " clip-rule="nonzero"/></clipPath><clipPath id="28bf65247f"><path d="M 29 37.414062 L 31 37.414062 L 31 38.90625 L 29 38.90625 Z M 29 37.414062 " clip-rule="nonzero"/></clipPath><clipPath id="fef4da2837"><path d="M 27 37.414062 L 29 37.414062 L 29 38.90625 L 27 38.90625 Z M 27 37.414062 " clip-rule="nonzero"/></clipPath><clipPath id="245b38760c"><path d="M 24 37.414062 L 27 37.414062 L 27 38.90625 L 24 38.90625 Z M 24 37.414062 " clip-rule="nonzero"/></clipPath><clipPath id="5b34a3292d"><path d="M 22.625 37.414062 L 24 37.414062 L 24 38.90625 L 22.625 38.90625 Z M 22.625 37.414062 " clip-rule="nonzero"/></clipPath><clipPath id="cbdfc03204"><path d="M 91 22.34375 L 93.382812 22.34375 L 93.382812 23.835938 L 91 23.835938 Z M 91 22.34375 " clip-rule="nonzero"/></clipPath><clipPath id="4156d11269"><path d="M 88 22.34375 L 91 22.34375 L 91 23.835938 L 88 23.835938 Z M 88 22.34375 " clip-rule="nonzero"/></clipPath><clipPath id="6716628d99"><path d="M 85 22.34375 L 88 22.34375 L 88 23.835938 L 85 23.835938 Z M 85 22.34375 " clip-rule="nonzero"/></clipPath><clipPath id="c0d781e893"><path d="M 83 22.34375 L 86 22.34375 L 86 23.835938 L 83 23.835938 Z M 83 22.34375 " clip-rule="nonzero"/></clipPath><clipPath id="7d82b6c88d"><path d="M 80.699219 22.34375 L 83 22.34375 L 83 23.835938 L 80.699219 23.835938 Z M 80.699219 22.34375 " clip-rule="nonzero"/></clipPath><clipPath id="eee216da5a"><path d="M 87 32 L 96 32 L 96 39 L 87 39 Z M 87 32 " clip-rule="nonzero"/></clipPath><clipPath id="5f7130e454"><path d="M 86.941406 34.804688 L 93.992188 32.363281 L 95.703125 37.296875 L 88.652344 39.738281 Z M 86.941406 34.804688 " clip-rule="nonzero"/></clipPath><clipPath id="6c7c62effa"><path d="M 94.335938 32.242188 L 87.285156 34.683594 L 88.992188 39.621094 L 96.042969 37.179688 Z M 94.335938 32.242188 " clip-rule="nonzero"/></clipPath><clipPath id="8b0aabad75"><path d="M 88 32 L 96 32 L 96 39 L 88 39 Z M 88 32 " clip-rule="nonzero"/></clipPath><clipPath id="efa3538c25"><path d="M 86.941406 34.804688 L 93.992188 32.363281 L 95.703125 37.296875 L 88.652344 39.738281 Z M 86.941406 34.804688 " clip-rule="nonzero"/></clipPath><clipPath id="4f71bd92e2"><path d="M 94.335938 32.242188 L 87.285156 34.683594 L 88.992188 39.621094 L 96.042969 37.179688 Z M 94.335938 32.242188 " clip-rule="nonzero"/></clipPath><clipPath id="bd3293078a"><path d="M 17.242188 27.300781 L 23.957031 27.300781 L 23.957031 34 L 17.242188 34 Z M 17.242188 27.300781 " clip-rule="nonzero"/></clipPath><clipPath id="c942979ef2"><path d="M 70.984375 33.019531 L 73 33.019531 L 73 34.511719 L 70.984375 34.511719 Z M 70.984375 33.019531 " clip-rule="nonzero"/></clipPath><clipPath id="655dff536c"><path d="M 72 33.019531 L 74 33.019531 L 74 34.511719 L 72 34.511719 Z M 72 33.019531 " clip-rule="nonzero"/></clipPath><clipPath id="1fa5bd921b"><path d="M 73 33.019531 L 75 33.019531 L 75 34.511719 L 73 34.511719 Z M 73 33.019531 " clip-rule="nonzero"/></clipPath><clipPath id="ca7a54faf0"><path d="M 74 33.019531 L 76 33.019531 L 76 34.511719 L 74 34.511719 Z M 74 33.019531 " clip-rule="nonzero"/></clipPath><clipPath id="a071d2524b"><path d="M 75 33.019531 L 78 33.019531 L 78 34.511719 L 75 34.511719 Z M 75 33.019531 " clip-rule="nonzero"/></clipPath><clipPath id="c30864e732"><path d="M 77 33.019531 L 79 33.019531 L 79 34.511719 L 77 34.511719 Z M 77 33.019531 " clip-rule="nonzero"/></clipPath><clipPath id="90c0db49bd"><path d="M 78 33.019531 L 79.660156 33.019531 L 79.660156 34.511719 L 78 34.511719 Z M 78 33.019531 " clip-rule="nonzero"/></clipPath><clipPath id="961ef4595a"><path d="M 19.035156 19 L 25 19 L 25 19.832031 L 19.035156 19.832031 Z M 19.035156 19 " clip-rule="nonzero"/></clipPath><clipPath id="1622c9a654"><path d="M 19.035156 17 L 25 17 L 25 19 L 19.035156 19 Z M 19.035156 17 " clip-rule="nonzero"/></clipPath><clipPath id="c41788c74c"><path d="M 19.035156 16.101562 L 25 16.101562 L 25 17 L 19.035156 17 Z M 19.035156 16.101562 " clip-rule="nonzero"/></clipPath></defs><g clip-path="url(#2172c9242b)"><path fill="#ffffff" d="M 0.0390625 0 L 111.964844 0 L 111.964844 48.5 L 0.0390625 48.5 Z M 0.0390625 0 " fill-opacity="1" fill-rule="nonzero"/><path fill="#ffffff" d="M 0.0390625 0 L 111.964844 0 L 111.964844 48.5 L 0.0390625 48.5 Z M 0.0390625 0 " fill-opacity="1" fill-rule="nonzero"/></g><g clip-path="url(#4ac22fd7d9)"><g clip-path="url(#ba3746bb2c)"><g clip-path="url(#5bd93a3784)"><path fill="#525252" d="M 37.726562 10.242188 L 36.476562 11.324219 L 36.179688 15.429688 L 34.246094 13.195312 L 33.152344 14.144531 L 35.207031 16.445312 L 30.730469 16.238281 L 29.324219 17.453125 L 37.339844 17.695312 Z M 37.726562 10.242188 " fill-opacity="1" fill-rule="nonzero"/></g></g></g><g clip-path="url(#ed3556a349)"><g clip-path="url(#0053582eb6)"><g clip-path="url(#4456d33218)"><path fill="#e0e0e0" d="M 29.515625 16.585938 L 31.101562 15.214844 L 31.136719 15.214844 L 35.417969 15.414062 L 33.4375 13.195312 L 34.65625 12.140625 L 36.515625 14.285156 L 36.800781 10.34375 L 38.21875 9.113281 L 37.820312 16.835938 Z M 31.160156 15.378906 L 29.933594 16.4375 L 37.667969 16.667969 L 38.039062 9.484375 L 36.957031 10.421875 L 36.648438 14.6875 L 34.640625 12.367188 L 33.667969 13.207031 L 35.796875 15.59375 Z M 31.160156 15.378906 " fill-opacity="1" fill-rule="nonzero"/></g></g></g><g clip-path="url(#08a546cd58)"><path fill="#d4a244" d="M 89.113281 39.421875 C 89.054688 39.421875 89 39.398438 88.957031 39.355469 C 88.867188 39.269531 88.867188 39.125 88.957031 39.039062 L 89.980469 38.015625 L 88.957031 36.988281 C 88.867188 36.902344 88.867188 36.761719 88.957031 36.675781 C 89.042969 36.589844 89.179688 36.585938 89.265625 36.671875 L 91.078125 37.847656 L 91.082031 37.851562 C 91.125 37.894531 91.148438 37.953125 91.148438 38.015625 C 91.148438 38.074219 91.125 38.132812 91.082031 38.175781 L 91.078125 38.179688 L 89.265625 39.359375 C 89.222656 39.398438 89.167969 39.421875 89.113281 39.421875 Z M 89.113281 36.703125 C 89.078125 36.703125 89.046875 36.714844 89.019531 36.738281 C 88.96875 36.789062 88.96875 36.875 89.019531 36.925781 L 90.109375 38.015625 L 89.019531 39.105469 C 88.96875 39.15625 88.96875 39.238281 89.019531 39.289062 C 89.046875 39.3125 89.078125 39.328125 89.113281 39.328125 C 89.148438 39.328125 89.179688 39.3125 89.207031 39.289062 L 89.207031 39.285156 L 91.019531 38.109375 C 91.042969 38.082031 91.058594 38.050781 91.054688 38.015625 L 91.054688 38.011719 C 91.058594 37.976562 91.042969 37.945312 91.019531 37.921875 L 89.207031 36.742188 L 89.207031 36.738281 C 89.179688 36.714844 89.148438 36.703125 89.113281 36.703125 Z M 89.113281 36.703125 " fill-opacity="1" fill-rule="nonzero"/></g><g clip-path="url(#46f1641cf6)"><path fill="#d4a244" d="M 87.375 39.421875 C 87.320312 39.421875 87.261719 39.398438 87.21875 39.355469 C 87.132812 39.269531 87.132812 39.125 87.21875 39.039062 L 88.242188 38.015625 L 87.21875 36.988281 C 87.132812 36.902344 87.132812 36.761719 87.21875 36.675781 C 87.304688 36.589844 87.441406 36.585938 87.53125 36.671875 L 89.34375 37.847656 L 89.347656 37.851562 C 89.390625 37.894531 89.414062 37.953125 89.410156 38.015625 C 89.414062 38.074219 89.390625 38.132812 89.347656 38.175781 L 89.34375 38.179688 L 87.53125 39.359375 C 87.488281 39.398438 87.433594 39.421875 87.375 39.421875 Z M 87.375 36.703125 C 87.339844 36.703125 87.308594 36.714844 87.285156 36.738281 C 87.234375 36.789062 87.234375 36.875 87.285156 36.925781 L 88.375 38.015625 L 87.285156 39.105469 C 87.234375 39.15625 87.234375 39.238281 87.285156 39.289062 C 87.308594 39.3125 87.339844 39.328125 87.375 39.328125 C 87.410156 39.328125 87.445312 39.3125 87.46875 39.289062 L 87.472656 39.285156 L 89.285156 38.109375 C 89.308594 38.082031 89.320312 38.050781 89.320312 38.015625 L 89.320312 38.011719 C 89.320312 37.976562 89.308594 37.945312 89.285156 37.921875 L 87.472656 36.742188 L 87.46875 36.738281 C 87.445312 36.714844 87.410156 36.703125 87.375 36.703125 Z M 87.375 36.703125 " fill-opacity="1" fill-rule="nonzero"/></g><g clip-path="url(#b71e057f1d)"><path fill="#d4a244" d="M 85.640625 39.421875 C 85.582031 39.421875 85.523438 39.398438 85.480469 39.355469 C 85.441406 39.3125 85.417969 39.257812 85.417969 39.195312 C 85.417969 39.136719 85.441406 39.082031 85.480469 39.039062 L 86.507812 38.015625 L 85.480469 36.988281 C 85.441406 36.949219 85.417969 36.890625 85.417969 36.832031 C 85.417969 36.773438 85.441406 36.714844 85.480469 36.675781 C 85.566406 36.589844 85.707031 36.585938 85.792969 36.671875 L 87.605469 37.847656 L 87.609375 37.851562 C 87.652344 37.894531 87.675781 37.953125 87.675781 38.015625 C 87.675781 38.074219 87.652344 38.132812 87.609375 38.175781 L 87.605469 38.179688 L 85.792969 39.359375 C 85.75 39.398438 85.695312 39.421875 85.640625 39.421875 Z M 85.640625 36.703125 C 85.605469 36.703125 85.570312 36.714844 85.546875 36.738281 C 85.523438 36.765625 85.507812 36.796875 85.507812 36.832031 C 85.507812 36.867188 85.523438 36.898438 85.546875 36.925781 L 86.636719 38.015625 L 85.546875 39.105469 C 85.523438 39.128906 85.507812 39.160156 85.507812 39.195312 C 85.507812 39.230469 85.523438 39.265625 85.546875 39.289062 C 85.570312 39.3125 85.605469 39.328125 85.640625 39.328125 C 85.675781 39.328125 85.707031 39.3125 85.730469 39.289062 L 85.738281 39.28125 L 87.546875 38.109375 C 87.570312 38.082031 87.582031 38.050781 87.582031 38.015625 L 87.582031 38.011719 C 87.582031 37.976562 87.570312 37.945312 87.546875 37.921875 L 85.734375 36.742188 L 85.730469 36.738281 C 85.707031 36.714844 85.675781 36.703125 85.640625 36.703125 Z M 85.640625 36.703125 " fill-opacity="1" fill-rule="nonzero"/></g><g clip-path="url(#bbcf06dd7e)"><path fill="#d4a244" d="M 83.902344 39.421875 C 83.847656 39.421875 83.789062 39.398438 83.746094 39.355469 C 83.703125 39.3125 83.679688 39.257812 83.679688 39.195312 C 83.679688 39.136719 83.703125 39.082031 83.746094 39.039062 L 84.769531 38.015625 L 83.746094 36.988281 C 83.703125 36.949219 83.679688 36.890625 83.679688 36.832031 C 83.679688 36.773438 83.703125 36.714844 83.746094 36.675781 C 83.832031 36.589844 83.96875 36.585938 84.058594 36.671875 L 85.871094 37.847656 L 85.871094 37.851562 C 85.914062 37.894531 85.941406 37.953125 85.9375 38.015625 C 85.941406 38.074219 85.914062 38.132812 85.871094 38.175781 L 85.871094 38.179688 L 84.058594 39.359375 C 84.015625 39.398438 83.957031 39.421875 83.902344 39.421875 Z M 83.902344 36.703125 C 83.867188 36.703125 83.835938 36.714844 83.8125 36.738281 C 83.785156 36.765625 83.773438 36.796875 83.773438 36.832031 C 83.773438 36.867188 83.785156 36.898438 83.8125 36.925781 L 84.902344 38.015625 L 83.8125 39.105469 C 83.785156 39.128906 83.773438 39.160156 83.773438 39.195312 C 83.773438 39.230469 83.785156 39.265625 83.8125 39.289062 C 83.835938 39.3125 83.867188 39.328125 83.902344 39.328125 C 83.9375 39.328125 83.96875 39.3125 83.996094 39.289062 L 84.003906 39.28125 L 85.808594 38.109375 C 85.835938 38.082031 85.847656 38.050781 85.84375 38.015625 L 85.84375 38.011719 C 85.847656 37.976562 85.835938 37.945312 85.808594 37.921875 L 84 36.742188 L 83.996094 36.738281 C 83.96875 36.714844 83.9375 36.703125 83.902344 36.703125 Z M 83.902344 36.703125 " fill-opacity="1" fill-rule="nonzero"/></g><g clip-path="url(#46b74de488)"><path fill="#d4a244" d="M 82.167969 39.421875 C 82.109375 39.421875 82.050781 39.398438 82.007812 39.355469 C 81.964844 39.3125 81.941406 39.257812 81.941406 39.195312 C 81.941406 39.136719 81.964844 39.082031 82.007812 39.039062 L 83.03125 38.015625 L 82.007812 36.988281 C 81.964844 36.949219 81.941406 36.890625 81.941406 36.832031 C 81.941406 36.773438 81.964844 36.714844 82.007812 36.675781 C 82.09375 36.589844 82.234375 36.585938 82.320312 36.671875 L 84.132812 37.847656 L 84.136719 37.851562 C 84.179688 37.894531 84.203125 37.953125 84.203125 38.015625 C 84.203125 38.074219 84.179688 38.132812 84.136719 38.175781 L 84.128906 38.183594 L 82.320312 39.359375 C 82.277344 39.398438 82.222656 39.421875 82.167969 39.421875 Z M 82.167969 36.703125 C 82.132812 36.703125 82.097656 36.714844 82.074219 36.738281 C 82.050781 36.765625 82.035156 36.796875 82.035156 36.832031 C 82.035156 36.867188 82.050781 36.898438 82.074219 36.925781 L 83.164062 38.015625 L 82.074219 39.105469 C 82.050781 39.128906 82.035156 39.160156 82.035156 39.195312 C 82.035156 39.230469 82.050781 39.265625 82.074219 39.289062 C 82.097656 39.3125 82.132812 39.328125 82.167969 39.328125 C 82.199219 39.328125 82.234375 39.3125 82.257812 39.289062 L 82.265625 39.28125 L 84.074219 38.109375 C 84.097656 38.082031 84.109375 38.050781 84.109375 38.015625 L 84.109375 38.011719 C 84.109375 37.976562 84.097656 37.945312 84.074219 37.921875 L 82.261719 36.742188 L 82.257812 36.738281 C 82.234375 36.714844 82.199219 36.703125 82.167969 36.703125 Z M 82.167969 36.703125 " fill-opacity="1" fill-rule="nonzero"/></g><g clip-path="url(#e55bdb8d78)"><path fill="#d4a244" d="M 80.429688 39.421875 C 80.371094 39.421875 80.316406 39.398438 80.273438 39.355469 C 80.230469 39.3125 80.207031 39.257812 80.207031 39.195312 C 80.207031 39.136719 80.230469 39.082031 80.273438 39.039062 L 81.296875 38.015625 L 80.273438 36.988281 C 80.230469 36.949219 80.207031 36.890625 80.207031 36.832031 C 80.207031 36.773438 80.230469 36.714844 80.273438 36.675781 C 80.359375 36.589844 80.496094 36.585938 80.582031 36.671875 L 82.394531 37.847656 L 82.398438 37.851562 C 82.441406 37.894531 82.464844 37.953125 82.464844 38.015625 C 82.464844 38.074219 82.441406 38.132812 82.398438 38.175781 L 82.390625 38.183594 L 80.582031 39.359375 C 80.539062 39.398438 80.484375 39.421875 80.429688 39.421875 Z M 80.429688 36.703125 C 80.394531 36.703125 80.363281 36.714844 80.335938 36.738281 C 80.3125 36.765625 80.300781 36.796875 80.300781 36.832031 C 80.300781 36.867188 80.3125 36.898438 80.335938 36.925781 L 81.425781 38.015625 L 80.335938 39.105469 C 80.3125 39.128906 80.300781 39.160156 80.300781 39.195312 C 80.300781 39.230469 80.3125 39.265625 80.335938 39.289062 C 80.363281 39.3125 80.394531 39.328125 80.429688 39.328125 C 80.464844 39.328125 80.496094 39.3125 80.523438 39.289062 L 80.523438 39.285156 L 80.53125 39.28125 L 82.335938 38.109375 C 82.359375 38.082031 82.375 38.050781 82.371094 38.015625 L 82.371094 38.011719 C 82.375 37.976562 82.359375 37.945312 82.335938 37.921875 L 80.527344 36.742188 L 80.523438 36.738281 C 80.496094 36.714844 80.464844 36.703125 80.429688 36.703125 Z M 80.429688 36.703125 " fill-opacity="1" fill-rule="nonzero"/></g><g clip-path="url(#34ee369a93)"><path fill="#525252" d="M 72.503906 21.566406 L 76.398438 17.675781 L 76.398438 23.820312 L 75.144531 21.378906 Z M 72.503906 21.566406 " fill-opacity="1" fill-rule="nonzero"/></g><g clip-path="url(#0d746b180a)"><path fill="#e0e0e0" d="M 75.839844 23.828125 L 74.476562 21.171875 L 71.699219 21.367188 L 75.839844 17.226562 Z M 74.558594 21.027344 L 75.703125 23.253906 L 75.703125 17.5625 L 72.058594 21.203125 Z M 74.558594 21.027344 " fill-opacity="1" fill-rule="nonzero"/></g><g clip-path="url(#b147ec4e43)"><path fill="#d4a244" d="M 39.75 34.378906 L 39.253906 33.882812 C 39.175781 33.804688 39.175781 33.675781 39.253906 33.597656 L 39.75 33.101562 C 39.828125 33.023438 39.953125 33.023438 40.03125 33.101562 L 40.53125 33.597656 C 40.609375 33.675781 40.609375 33.804688 40.53125 33.882812 L 40.03125 34.378906 C 39.953125 34.457031 39.828125 34.457031 39.75 34.378906 Z M 39.75 34.378906 " fill-opacity="1" fill-rule="nonzero"/></g><g clip-path="url(#66a1e8ddcd)"><path fill="#d4a244" d="M 37.917969 34.378906 L 37.417969 33.882812 C 37.339844 33.804688 37.339844 33.675781 37.417969 33.597656 L 37.917969 33.101562 C 37.996094 33.023438 38.121094 33.023438 38.199219 33.101562 L 38.699219 33.597656 C 38.777344 33.675781 38.777344 33.804688 38.699219 33.882812 L 38.199219 34.378906 C 38.121094 34.457031 37.996094 34.457031 37.917969 34.378906 Z M 37.917969 34.378906 " fill-opacity="1" fill-rule="nonzero"/></g><g clip-path="url(#5b60b39766)"><path fill="#d4a244" d="M 36.082031 34.378906 L 35.585938 33.882812 C 35.507812 33.804688 35.507812 33.675781 35.585938 33.597656 L 36.082031 33.101562 C 36.160156 33.023438 36.289062 33.023438 36.367188 33.101562 L 36.863281 33.597656 C 36.941406 33.675781 36.941406 33.804688 36.863281 33.882812 L 36.367188 34.378906 C 36.289062 34.457031 36.160156 34.457031 36.082031 34.378906 Z M 36.082031 34.378906 " fill-opacity="1" fill-rule="nonzero"/></g><g clip-path="url(#7c6912f6e0)"><path fill="#d4a244" d="M 34.25 34.378906 L 33.753906 33.882812 C 33.675781 33.804688 33.675781 33.675781 33.753906 33.597656 L 34.25 33.101562 C 34.328125 33.023438 34.453125 33.023438 34.53125 33.101562 L 35.03125 33.597656 C 35.109375 33.675781 35.109375 33.804688 35.03125 33.882812 L 34.53125 34.378906 C 34.453125 34.457031 34.328125 34.457031 34.25 34.378906 Z M 34.25 34.378906 " fill-opacity="1" fill-rule="nonzero"/></g><g clip-path="url(#2684982cb7)"><path fill="#d4a244" d="M 32.417969 34.378906 L 31.917969 33.882812 C 31.839844 33.804688 31.839844 33.675781 31.917969 33.597656 L 32.417969 33.101562 C 32.496094 33.023438 32.621094 33.023438 32.699219 33.101562 L 33.195312 33.597656 C 33.273438 33.675781 33.273438 33.804688 33.195312 33.882812 L 32.699219 34.378906 C 32.621094 34.457031 32.496094 34.457031 32.417969 34.378906 Z M 32.417969 34.378906 " fill-opacity="1" fill-rule="nonzero"/></g><g clip-path="url(#217e57eaa2)"><path fill="#e0e0e0" d="M 34.28125 38.601562 C 33.953125 38.601562 33.683594 38.335938 33.683594 38.007812 C 33.683594 37.679688 33.953125 37.414062 34.28125 37.414062 C 34.609375 37.414062 34.875 37.679688 34.875 38.007812 C 34.875 38.335938 34.609375 38.601562 34.28125 38.601562 Z M 34.28125 37.53125 C 34.015625 37.53125 33.804688 37.746094 33.804688 38.007812 C 33.804688 38.269531 34.015625 38.484375 34.28125 38.484375 C 34.542969 38.484375 34.757812 38.269531 34.757812 38.007812 C 34.757812 37.746094 34.542969 37.53125 34.28125 37.53125 Z M 34.28125 37.53125 " fill-opacity="1" fill-rule="nonzero"/></g><g clip-path="url(#257f3c9bb8)"><path fill="#e0e0e0" d="M 32.066406 38.601562 C 31.742188 38.601562 31.472656 38.335938 31.472656 38.007812 C 31.472656 37.679688 31.742188 37.414062 32.066406 37.414062 C 32.394531 37.414062 32.664062 37.679688 32.664062 38.007812 C 32.664062 38.335938 32.394531 38.601562 32.066406 38.601562 Z M 32.066406 37.53125 C 31.804688 37.53125 31.589844 37.746094 31.589844 38.007812 C 31.589844 38.269531 31.804688 38.484375 32.066406 38.484375 C 32.332031 38.484375 32.546875 38.269531 32.546875 38.007812 C 32.546875 37.746094 32.332031 37.53125 32.066406 37.53125 Z M 32.066406 37.53125 " fill-opacity="1" fill-rule="nonzero"/></g><g clip-path="url(#28bf65247f)"><path fill="#e0e0e0" d="M 29.855469 38.601562 C 29.527344 38.601562 29.261719 38.335938 29.261719 38.007812 C 29.261719 37.679688 29.527344 37.414062 29.855469 37.414062 C 30.183594 37.414062 30.449219 37.679688 30.449219 38.007812 C 30.449219 38.335938 30.183594 38.601562 29.855469 38.601562 Z M 29.855469 37.53125 C 29.59375 37.53125 29.378906 37.746094 29.378906 38.007812 C 29.378906 38.269531 29.59375 38.484375 29.855469 38.484375 C 30.121094 38.484375 30.332031 38.269531 30.332031 38.007812 C 30.332031 37.746094 30.121094 37.53125 29.855469 37.53125 Z M 29.855469 37.53125 " fill-opacity="1" fill-rule="nonzero"/></g><g clip-path="url(#fef4da2837)"><path fill="#e0e0e0" d="M 27.644531 38.601562 C 27.316406 38.601562 27.050781 38.335938 27.050781 38.007812 C 27.050781 37.679688 27.316406 37.414062 27.644531 37.414062 C 27.972656 37.414062 28.238281 37.679688 28.238281 38.007812 C 28.238281 38.335938 27.972656 38.601562 27.644531 38.601562 Z M 27.644531 37.53125 C 27.382812 37.53125 27.167969 37.746094 27.167969 38.007812 C 27.167969 38.269531 27.382812 38.484375 27.644531 38.484375 C 27.90625 38.484375 28.121094 38.269531 28.121094 38.007812 C 28.121094 37.746094 27.90625 37.53125 27.644531 37.53125 Z M 27.644531 37.53125 " fill-opacity="1" fill-rule="nonzero"/></g><g clip-path="url(#245b38760c)"><path fill="#e0e0e0" d="M 25.433594 38.601562 C 25.105469 38.601562 24.839844 38.335938 24.839844 38.007812 C 24.839844 37.679688 25.105469 37.414062 25.433594 37.414062 C 25.761719 37.414062 26.027344 37.679688 26.027344 38.007812 C 26.027344 38.335938 25.761719 38.601562 25.433594 38.601562 Z M 25.433594 37.53125 C 25.171875 37.53125 24.957031 37.746094 24.957031 38.007812 C 24.957031 38.269531 25.171875 38.484375 25.433594 38.484375 C 25.695312 38.484375 25.910156 38.269531 25.910156 38.007812 C 25.910156 37.746094 25.695312 37.53125 25.433594 37.53125 Z M 25.433594 37.53125 " fill-opacity="1" fill-rule="nonzero"/></g><g clip-path="url(#5b34a3292d)"><path fill="#e0e0e0" d="M 23.222656 38.601562 C 22.894531 38.601562 22.625 38.335938 22.625 38.007812 C 22.625 37.679688 22.894531 37.414062 23.222656 37.414062 C 23.550781 37.414062 23.816406 37.679688 23.816406 38.007812 C 23.816406 38.335938 23.550781 38.601562 23.222656 38.601562 Z M 23.222656 37.53125 C 22.957031 37.53125 22.746094 37.746094 22.746094 38.007812 C 22.746094 38.269531 22.957031 38.484375 23.222656 38.484375 C 23.484375 38.484375 23.699219 38.269531 23.699219 38.007812 C 23.699219 37.746094 23.484375 37.53125 23.222656 37.53125 Z M 23.222656 37.53125 " fill-opacity="1" fill-rule="nonzero"/></g><g fill="#d4a244" fill-opacity="1"><g transform="translate(6.329578, 23.659382)"><g><path d="M 5.71875 0.1875 C 4.03125 0.1875 2.710938 -0.289062 1.765625 -1.25 C 0.816406 -2.207031 0.34375 -3.628906 0.34375 -5.515625 C 0.34375 -7.421875 0.816406 -8.851562 1.765625 -9.8125 C 2.722656 -10.78125 4.046875 -11.265625 5.734375 -11.265625 C 6.453125 -11.265625 7.085938 -11.210938 7.640625 -11.109375 C 8.191406 -11.015625 8.6875 -10.863281 9.125 -10.65625 L 9.140625 -7.125 C 8.578125 -7.289062 8.019531 -7.410156 7.46875 -7.484375 C 6.914062 -7.566406 6.222656 -7.609375 5.390625 -7.609375 C 4.210938 -7.609375 3.335938 -7.441406 2.765625 -7.109375 C 2.191406 -6.773438 1.90625 -6.25 1.90625 -5.53125 C 1.90625 -4.164062 3.078125 -3.484375 5.421875 -3.484375 C 6.242188 -3.484375 6.941406 -3.523438 7.515625 -3.609375 C 8.085938 -3.691406 8.660156 -3.8125 9.234375 -3.96875 L 9.21875 -0.4375 C 8.75 -0.238281 8.234375 -0.0859375 7.671875 0.015625 C 7.117188 0.128906 6.46875 0.1875 5.71875 0.1875 Z M 5.71875 0.1875 "/></g></g></g><g fill="#d4a244" fill-opacity="1"><g transform="translate(16.056285, 23.659382)"><g><path d="M 0.078125 0 C 0.671875 -1.789062 1.253906 -3.613281 1.828125 -5.46875 C 2.410156 -7.320312 2.992188 -9.195312 3.578125 -11.09375 L 6.734375 -11.09375 C 7.316406 -9.195312 7.898438 -7.320312 8.484375 -5.46875 C 9.066406 -3.613281 9.648438 -1.789062 10.234375 0 L 8.671875 0 L 8.078125 -1.875 L 2.28125 -1.875 L 1.71875 0 Z M 3.265625 -5.078125 L 7.078125 -5.078125 L 6.328125 -7.515625 L 4 -7.515625 Z M 3.265625 -5.078125 "/></g></g></g><g fill="#d4a244" fill-opacity="1"><g transform="translate(26.384969, 23.659382)"><g><path d="M 0.6875 0 C 0.6875 -0.300781 0.691406 -0.679688 0.703125 -1.140625 C 0.710938 -1.609375 0.71875 -2.097656 0.71875 -2.609375 C 0.726562 -3.117188 0.734375 -3.613281 0.734375 -4.09375 C 0.742188 -4.570312 0.75 -4.984375 0.75 -5.328125 C 0.75 -6.203125 0.742188 -7.085938 0.734375 -7.984375 C 0.722656 -8.890625 0.707031 -9.925781 0.6875 -11.09375 L 4.640625 -11.09375 L 6.9375 -2.203125 L 7.078125 -2.203125 L 9.15625 -11.09375 L 13.140625 -11.09375 C 13.128906 -9.976562 13.113281 -8.945312 13.09375 -8 C 13.082031 -7.0625 13.078125 -6.210938 13.078125 -5.453125 C 13.078125 -4.742188 13.082031 -3.960938 13.09375 -3.109375 C 13.101562 -2.253906 13.117188 -1.21875 13.140625 0 L 11.53125 0 C 11.539062 -0.96875 11.550781 -1.832031 11.5625 -2.59375 C 11.582031 -3.351562 11.59375 -4.003906 11.59375 -4.546875 L 11.59375 -7.828125 L 11.109375 -7.828125 L 9.109375 0 L 6.09375 0 L 4.03125 -7.8125 L 3.53125 -7.8125 C 3.53125 -7.207031 3.53125 -6.660156 3.53125 -6.171875 C 3.539062 -5.679688 3.546875 -5.191406 3.546875 -4.703125 C 3.546875 -4.085938 3.550781 -3.421875 3.5625 -2.703125 C 3.570312 -1.992188 3.582031 -1.09375 3.59375 0 Z M 0.6875 0 "/></g></g></g><g fill="#d4a244" fill-opacity="1"><g transform="translate(40.198795, 23.659382)"><g><path d="M 0.6875 0 C 0.707031 -0.914062 0.722656 -1.84375 0.734375 -2.78125 C 0.742188 -3.71875 0.75 -4.632812 0.75 -5.53125 C 0.75 -6.414062 0.742188 -7.332031 0.734375 -8.28125 C 0.722656 -9.226562 0.707031 -10.164062 0.6875 -11.09375 L 5.109375 -11.09375 C 6.566406 -11.09375 7.65625 -10.75 8.375 -10.0625 C 9.09375 -9.382812 9.453125 -8.476562 9.453125 -7.34375 C 9.453125 -6 9.085938 -5.019531 8.359375 -4.40625 C 7.628906 -3.800781 6.519531 -3.5 5.03125 -3.5 L 2.203125 -3.5 C 2.222656 -3.019531 2.234375 -2.457031 2.234375 -1.8125 C 2.242188 -1.175781 2.253906 -0.570312 2.265625 0 Z M 2.171875 -4.859375 L 5.453125 -4.859375 C 6.066406 -4.859375 6.539062 -4.96875 6.875 -5.1875 C 7.21875 -5.414062 7.390625 -5.78125 7.390625 -6.28125 C 7.390625 -6.707031 7.21875 -7.019531 6.875 -7.21875 C 6.539062 -7.425781 6.125 -7.53125 5.625 -7.53125 L 2.171875 -7.53125 Z M 2.171875 -4.859375 "/></g></g></g><g fill="#d4a244" fill-opacity="1"><g transform="translate(49.862135, 23.659382)"><g><path d="M 5.03125 0.1875 C 4.132812 0.1875 3.394531 0.0703125 2.8125 -0.15625 C 2.226562 -0.382812 1.769531 -0.707031 1.4375 -1.125 C 1.101562 -1.550781 0.867188 -2.046875 0.734375 -2.609375 C 0.597656 -3.171875 0.53125 -3.785156 0.53125 -4.453125 C 0.53125 -5.722656 0.523438 -6.914062 0.515625 -8.03125 C 0.515625 -9.144531 0.5 -10.164062 0.46875 -11.09375 L 2.046875 -11.09375 C 2.035156 -10 2.023438 -9.015625 2.015625 -8.140625 C 2.003906 -7.265625 2 -6.515625 2 -5.890625 C 2 -5.429688 2.070312 -5.019531 2.21875 -4.65625 C 2.375 -4.289062 2.671875 -4.003906 3.109375 -3.796875 C 3.546875 -3.585938 4.1875 -3.484375 5.03125 -3.484375 C 5.882812 -3.484375 6.53125 -3.585938 6.96875 -3.796875 C 7.40625 -4.003906 7.695312 -4.289062 7.84375 -4.65625 C 8 -5.019531 8.078125 -5.429688 8.078125 -5.890625 C 8.078125 -6.460938 8.070312 -7.195312 8.0625 -8.09375 C 8.050781 -9 8.035156 -10 8.015625 -11.09375 L 9.578125 -11.09375 C 9.546875 -10.21875 9.523438 -9.207031 9.515625 -8.0625 C 9.515625 -6.914062 9.519531 -5.710938 9.53125 -4.453125 C 9.53125 -3.785156 9.460938 -3.171875 9.328125 -2.609375 C 9.203125 -2.046875 8.972656 -1.550781 8.640625 -1.125 C 8.304688 -0.707031 7.847656 -0.382812 7.265625 -0.15625 C 6.679688 0.0703125 5.9375 0.1875 5.03125 0.1875 Z M 5.03125 0.1875 "/></g></g></g><g fill="#d4a244" fill-opacity="1"><g transform="translate(59.921514, 23.659382)"><g><path d="M 4.671875 0.171875 C 3.992188 0.171875 3.296875 0.109375 2.578125 -0.015625 C 1.859375 -0.148438 1.179688 -0.320312 0.546875 -0.53125 L 0.453125 -3.75 C 0.984375 -3.632812 1.609375 -3.519531 2.328125 -3.40625 C 3.046875 -3.289062 3.835938 -3.234375 4.703125 -3.234375 C 5.546875 -3.234375 6.113281 -3.304688 6.40625 -3.453125 C 6.707031 -3.609375 6.859375 -3.804688 6.859375 -4.046875 C 6.859375 -4.210938 6.800781 -4.351562 6.6875 -4.46875 C 6.570312 -4.582031 6.34375 -4.675781 6 -4.75 C 5.65625 -4.820312 5.140625 -4.867188 4.453125 -4.890625 C 3.597656 -4.929688 2.859375 -5.023438 2.234375 -5.171875 C 1.609375 -5.316406 1.125 -5.585938 0.78125 -5.984375 C 0.445312 -6.378906 0.28125 -6.972656 0.28125 -7.765625 C 0.28125 -8.171875 0.359375 -8.582031 0.515625 -9 C 0.679688 -9.425781 0.941406 -9.804688 1.296875 -10.140625 C 1.660156 -10.472656 2.132812 -10.742188 2.71875 -10.953125 C 3.300781 -11.160156 4.015625 -11.265625 4.859375 -11.265625 C 5.304688 -11.265625 5.765625 -11.234375 6.234375 -11.171875 C 6.710938 -11.109375 7.160156 -11.023438 7.578125 -10.921875 C 8.003906 -10.816406 8.363281 -10.703125 8.65625 -10.578125 L 8.765625 -7.203125 C 8.441406 -7.296875 7.929688 -7.40625 7.234375 -7.53125 C 6.546875 -7.65625 5.707031 -7.71875 4.71875 -7.71875 C 3.9375 -7.71875 3.394531 -7.65625 3.09375 -7.53125 C 2.789062 -7.40625 2.640625 -7.222656 2.640625 -6.984375 C 2.640625 -6.847656 2.691406 -6.726562 2.796875 -6.625 C 2.898438 -6.53125 3.101562 -6.453125 3.40625 -6.390625 C 3.71875 -6.328125 4.191406 -6.273438 4.828125 -6.234375 C 5.722656 -6.171875 6.503906 -6.066406 7.171875 -5.921875 C 7.835938 -5.773438 8.351562 -5.5 8.71875 -5.09375 C 9.082031 -4.695312 9.265625 -4.09375 9.265625 -3.28125 C 9.265625 -2.625 9.132812 -2.070312 8.875 -1.625 C 8.625 -1.1875 8.273438 -0.832031 7.828125 -0.5625 C 7.378906 -0.300781 6.882812 -0.113281 6.34375 0 C 5.800781 0.113281 5.242188 0.171875 4.671875 0.171875 Z M 4.671875 0.171875 "/></g></g></g><g fill="#302f2f" fill-opacity="1"><g transform="translate(25.133041, 32.396911)"><g><path d="M 4.484375 0.15625 C 3.160156 0.15625 2.128906 -0.21875 1.390625 -0.96875 C 0.648438 -1.726562 0.28125 -2.847656 0.28125 -4.328125 C 0.28125 -5.828125 0.648438 -6.953125 1.390625 -7.703125 C 2.140625 -8.460938 3.175781 -8.84375 4.5 -8.84375 C 5.0625 -8.84375 5.5625 -8.800781 6 -8.71875 C 6.4375 -8.644531 6.820312 -8.53125 7.15625 -8.375 L 7.171875 -5.59375 C 6.734375 -5.71875 6.296875 -5.8125 5.859375 -5.875 C 5.429688 -5.9375 4.890625 -5.96875 4.234375 -5.96875 C 3.304688 -5.96875 2.617188 -5.835938 2.171875 -5.578125 C 1.722656 -5.316406 1.5 -4.90625 1.5 -4.34375 C 1.5 -3.269531 2.414062 -2.734375 4.25 -2.734375 C 4.894531 -2.734375 5.441406 -2.765625 5.890625 -2.828125 C 6.347656 -2.898438 6.800781 -2.992188 7.25 -3.109375 L 7.234375 -0.34375 C 6.859375 -0.1875 6.453125 -0.0664062 6.015625 0.015625 C 5.585938 0.109375 5.078125 0.15625 4.484375 0.15625 Z M 4.484375 0.15625 "/></g></g></g><g fill="#302f2f" fill-opacity="1"><g transform="translate(32.76407, 32.396911)"><g><path d="M 4.453125 0.1875 C 3.078125 0.1875 2.035156 -0.191406 1.328125 -0.953125 C 0.628906 -1.710938 0.28125 -2.847656 0.28125 -4.359375 C 0.28125 -5.847656 0.628906 -6.96875 1.328125 -7.71875 C 2.035156 -8.476562 3.078125 -8.859375 4.453125 -8.859375 C 5.828125 -8.859375 6.863281 -8.476562 7.5625 -7.71875 C 8.269531 -6.96875 8.625 -5.847656 8.625 -4.359375 C 8.625 -1.328125 7.234375 0.1875 4.453125 0.1875 Z M 1.5 -4.359375 C 1.5 -3.941406 1.59375 -3.609375 1.78125 -3.359375 C 1.96875 -3.117188 2.273438 -2.945312 2.703125 -2.84375 C 3.140625 -2.75 3.722656 -2.703125 4.453125 -2.703125 C 5.179688 -2.703125 5.757812 -2.75 6.1875 -2.84375 C 6.625 -2.945312 6.9375 -3.117188 7.125 -3.359375 C 7.3125 -3.609375 7.40625 -3.941406 7.40625 -4.359375 C 7.40625 -4.765625 7.3125 -5.082031 7.125 -5.3125 C 6.9375 -5.550781 6.625 -5.71875 6.1875 -5.8125 C 5.757812 -5.914062 5.179688 -5.96875 4.453125 -5.96875 C 3.734375 -5.96875 3.15625 -5.914062 2.71875 -5.8125 C 2.28125 -5.71875 1.96875 -5.550781 1.78125 -5.3125 C 1.59375 -5.082031 1.5 -4.765625 1.5 -4.359375 Z M 1.5 -4.359375 "/></g></g></g><g fill="#302f2f" fill-opacity="1"><g transform="translate(41.662794, 32.396911)"><g><path d="M 0.53125 0 C 0.539062 -0.445312 0.546875 -0.925781 0.546875 -1.4375 C 0.554688 -1.945312 0.5625 -2.457031 0.5625 -2.96875 C 0.570312 -3.488281 0.578125 -3.976562 0.578125 -4.4375 C 0.578125 -4.71875 0.578125 -5.035156 0.578125 -5.390625 C 0.578125 -5.753906 0.570312 -6.203125 0.5625 -6.734375 C 0.5625 -7.265625 0.550781 -7.921875 0.53125 -8.703125 L 3.140625 -8.703125 L 6.46875 -2.5625 L 6.71875 -2.5625 C 6.71875 -2.9375 6.71875 -3.273438 6.71875 -3.578125 C 6.726562 -3.890625 6.734375 -4.195312 6.734375 -4.5 C 6.734375 -4.800781 6.726562 -5.140625 6.71875 -5.515625 C 6.71875 -5.890625 6.710938 -6.332031 6.703125 -6.84375 C 6.691406 -7.363281 6.679688 -7.984375 6.671875 -8.703125 L 7.921875 -8.703125 C 7.921875 -8.566406 7.914062 -8.363281 7.90625 -8.09375 C 7.90625 -7.832031 7.898438 -7.53125 7.890625 -7.1875 C 7.890625 -6.851562 7.882812 -6.507812 7.875 -6.15625 C 7.875 -5.800781 7.867188 -5.460938 7.859375 -5.140625 C 7.859375 -4.828125 7.859375 -4.566406 7.859375 -4.359375 C 7.859375 -4.015625 7.859375 -3.640625 7.859375 -3.234375 C 7.867188 -2.835938 7.875 -2.375 7.875 -1.84375 C 7.882812 -1.320312 7.894531 -0.707031 7.90625 0 L 5.296875 0 L 1.984375 -6.140625 L 1.734375 -6.140625 C 1.734375 -5.734375 1.734375 -5.375 1.734375 -5.0625 C 1.734375 -4.757812 1.734375 -4.460938 1.734375 -4.171875 C 1.734375 -3.878906 1.734375 -3.550781 1.734375 -3.1875 C 1.734375 -2.820312 1.738281 -2.382812 1.75 -1.875 C 1.757812 -1.363281 1.769531 -0.738281 1.78125 0 Z M 0.53125 0 "/></g></g></g><g fill="#302f2f" fill-opacity="1"><g transform="translate(50.114094, 32.396911)"><g><path d="M 0.53125 0 C 0.539062 -0.445312 0.546875 -0.925781 0.546875 -1.4375 C 0.554688 -1.945312 0.5625 -2.457031 0.5625 -2.96875 C 0.570312 -3.488281 0.578125 -3.976562 0.578125 -4.4375 C 0.578125 -4.71875 0.578125 -5.035156 0.578125 -5.390625 C 0.578125 -5.753906 0.570312 -6.203125 0.5625 -6.734375 C 0.5625 -7.265625 0.550781 -7.921875 0.53125 -8.703125 L 3.140625 -8.703125 L 6.46875 -2.5625 L 6.71875 -2.5625 C 6.71875 -2.9375 6.71875 -3.273438 6.71875 -3.578125 C 6.726562 -3.890625 6.734375 -4.195312 6.734375 -4.5 C 6.734375 -4.800781 6.726562 -5.140625 6.71875 -5.515625 C 6.71875 -5.890625 6.710938 -6.332031 6.703125 -6.84375 C 6.691406 -7.363281 6.679688 -7.984375 6.671875 -8.703125 L 7.921875 -8.703125 C 7.921875 -8.566406 7.914062 -8.363281 7.90625 -8.09375 C 7.90625 -7.832031 7.898438 -7.53125 7.890625 -7.1875 C 7.890625 -6.851562 7.882812 -6.507812 7.875 -6.15625 C 7.875 -5.800781 7.867188 -5.460938 7.859375 -5.140625 C 7.859375 -4.828125 7.859375 -4.566406 7.859375 -4.359375 C 7.859375 -4.015625 7.859375 -3.640625 7.859375 -3.234375 C 7.867188 -2.835938 7.875 -2.375 7.875 -1.84375 C 7.882812 -1.320312 7.894531 -0.707031 7.90625 0 L 5.296875 0 L 1.984375 -6.140625 L 1.734375 -6.140625 C 1.734375 -5.734375 1.734375 -5.375 1.734375 -5.0625 C 1.734375 -4.757812 1.734375 -4.460938 1.734375 -4.171875 C 1.734375 -3.878906 1.734375 -3.550781 1.734375 -3.1875 C 1.734375 -2.820312 1.738281 -2.382812 1.75 -1.875 C 1.757812 -1.363281 1.769531 -0.738281 1.78125 0 Z M 0.53125 0 "/></g></g></g><g fill="#302f2f" fill-opacity="1"><g transform="translate(58.565394, 32.396911)"><g><path d="M 0.53125 0 C 0.539062 -0.445312 0.550781 -0.925781 0.5625 -1.4375 C 0.570312 -1.957031 0.578125 -2.46875 0.578125 -2.96875 C 0.578125 -3.46875 0.578125 -3.921875 0.578125 -4.328125 C 0.578125 -4.722656 0.578125 -5.171875 0.578125 -5.671875 C 0.578125 -6.179688 0.570312 -6.695312 0.5625 -7.21875 C 0.5625 -7.75 0.550781 -8.242188 0.53125 -8.703125 L 6.734375 -8.703125 L 6.734375 -5.84375 L 1.71875 -5.84375 L 1.71875 -4.96875 C 2.457031 -4.96875 3.191406 -4.96875 3.921875 -4.96875 C 4.660156 -4.96875 5.394531 -4.972656 6.125 -4.984375 L 6.125 -4.015625 C 5.394531 -4.023438 4.660156 -4.03125 3.921875 -4.03125 C 3.191406 -4.03125 2.457031 -4.03125 1.71875 -4.03125 L 1.71875 -2.859375 L 6.90625 -2.859375 L 6.90625 0 Z M 0.53125 0 "/></g></g></g><g fill="#302f2f" fill-opacity="1"><g transform="translate(65.71171, 32.396911)"><g><path d="M 4.484375 0.15625 C 3.160156 0.15625 2.128906 -0.21875 1.390625 -0.96875 C 0.648438 -1.726562 0.28125 -2.847656 0.28125 -4.328125 C 0.28125 -5.828125 0.648438 -6.953125 1.390625 -7.703125 C 2.140625 -8.460938 3.175781 -8.84375 4.5 -8.84375 C 5.0625 -8.84375 5.5625 -8.800781 6 -8.71875 C 6.4375 -8.644531 6.820312 -8.53125 7.15625 -8.375 L 7.171875 -5.59375 C 6.734375 -5.71875 6.296875 -5.8125 5.859375 -5.875 C 5.429688 -5.9375 4.890625 -5.96875 4.234375 -5.96875 C 3.304688 -5.96875 2.617188 -5.835938 2.171875 -5.578125 C 1.722656 -5.316406 1.5 -4.90625 1.5 -4.34375 C 1.5 -3.269531 2.414062 -2.734375 4.25 -2.734375 C 4.894531 -2.734375 5.441406 -2.765625 5.890625 -2.828125 C 6.347656 -2.898438 6.800781 -2.992188 7.25 -3.109375 L 7.234375 -0.34375 C 6.859375 -0.1875 6.453125 -0.0664062 6.015625 0.015625 C 5.585938 0.109375 5.078125 0.15625 4.484375 0.15625 Z M 4.484375 0.15625 "/></g></g></g><g fill="#302f2f" fill-opacity="1"><g transform="translate(73.342739, 32.396911)"><g><path d="M 2.703125 0 C 2.710938 -0.695312 2.722656 -1.394531 2.734375 -2.09375 C 2.742188 -2.789062 2.75 -3.425781 2.75 -4 L 2.75 -5.890625 L 0.140625 -5.890625 L 0.140625 -8.703125 L 6.5 -8.703125 L 6.5 -5.890625 L 3.890625 -5.890625 C 3.878906 -5.546875 3.875 -5.21875 3.875 -4.90625 C 3.875 -4.59375 3.875 -4.289062 3.875 -4 C 3.875 -3.40625 3.878906 -2.757812 3.890625 -2.0625 C 3.898438 -1.363281 3.914062 -0.675781 3.9375 0 Z M 2.703125 0 "/></g></g></g><g fill="#302f2f" fill-opacity="1"><g transform="translate(79.967066, 32.396911)"><g><path d="M 0.53125 0 C 0.550781 -0.664062 0.5625 -1.375 0.5625 -2.125 C 0.570312 -2.882812 0.578125 -3.628906 0.578125 -4.359375 C 0.578125 -5.085938 0.570312 -5.828125 0.5625 -6.578125 C 0.5625 -7.335938 0.550781 -8.046875 0.53125 -8.703125 L 1.765625 -8.703125 C 1.742188 -8.046875 1.726562 -7.332031 1.71875 -6.5625 C 1.707031 -5.800781 1.703125 -5.066406 1.703125 -4.359375 C 1.703125 -3.640625 1.707031 -2.898438 1.71875 -2.140625 C 1.726562 -1.378906 1.742188 -0.664062 1.765625 0 Z M 0.53125 0 "/></g></g></g><g fill="#302f2f" fill-opacity="1"><g transform="translate(82.266318, 32.396911)"><g><path d="M 4.453125 0.1875 C 3.078125 0.1875 2.035156 -0.191406 1.328125 -0.953125 C 0.628906 -1.710938 0.28125 -2.847656 0.28125 -4.359375 C 0.28125 -5.847656 0.628906 -6.96875 1.328125 -7.71875 C 2.035156 -8.476562 3.078125 -8.859375 4.453125 -8.859375 C 5.828125 -8.859375 6.863281 -8.476562 7.5625 -7.71875 C 8.269531 -6.96875 8.625 -5.847656 8.625 -4.359375 C 8.625 -1.328125 7.234375 0.1875 4.453125 0.1875 Z M 1.5 -4.359375 C 1.5 -3.941406 1.59375 -3.609375 1.78125 -3.359375 C 1.96875 -3.117188 2.273438 -2.945312 2.703125 -2.84375 C 3.140625 -2.75 3.722656 -2.703125 4.453125 -2.703125 C 5.179688 -2.703125 5.757812 -2.75 6.1875 -2.84375 C 6.625 -2.945312 6.9375 -3.117188 7.125 -3.359375 C 7.3125 -3.609375 7.40625 -3.941406 7.40625 -4.359375 C 7.40625 -4.765625 7.3125 -5.082031 7.125 -5.3125 C 6.9375 -5.550781 6.625 -5.71875 6.1875 -5.8125 C 5.757812 -5.914062 5.179688 -5.96875 4.453125 -5.96875 C 3.734375 -5.96875 3.15625 -5.914062 2.71875 -5.8125 C 2.28125 -5.71875 1.96875 -5.550781 1.78125 -5.3125 C 1.59375 -5.082031 1.5 -4.765625 1.5 -4.359375 Z M 1.5 -4.359375 "/></g></g></g><g fill="#302f2f" fill-opacity="1"><g transform="translate(91.165042, 32.396911)"><g><path d="M 0.53125 0 C 0.539062 -0.445312 0.546875 -0.925781 0.546875 -1.4375 C 0.554688 -1.945312 0.5625 -2.457031 0.5625 -2.96875 C 0.570312 -3.488281 0.578125 -3.976562 0.578125 -4.4375 C 0.578125 -4.71875 0.578125 -5.035156 0.578125 -5.390625 C 0.578125 -5.753906 0.570312 -6.203125 0.5625 -6.734375 C 0.5625 -7.265625 0.550781 -7.921875 0.53125 -8.703125 L 3.140625 -8.703125 L 6.46875 -2.5625 L 6.71875 -2.5625 C 6.71875 -2.9375 6.71875 -3.273438 6.71875 -3.578125 C 6.726562 -3.890625 6.734375 -4.195312 6.734375 -4.5 C 6.734375 -4.800781 6.726562 -5.140625 6.71875 -5.515625 C 6.71875 -5.890625 6.710938 -6.332031 6.703125 -6.84375 C 6.691406 -7.363281 6.679688 -7.984375 6.671875 -8.703125 L 7.921875 -8.703125 C 7.921875 -8.566406 7.914062 -8.363281 7.90625 -8.09375 C 7.90625 -7.832031 7.898438 -7.53125 7.890625 -7.1875 C 7.890625 -6.851562 7.882812 -6.507812 7.875 -6.15625 C 7.875 -5.800781 7.867188 -5.460938 7.859375 -5.140625 C 7.859375 -4.828125 7.859375 -4.566406 7.859375 -4.359375 C 7.859375 -4.015625 7.859375 -3.640625 7.859375 -3.234375 C 7.867188 -2.835938 7.875 -2.375 7.875 -1.84375 C 7.882812 -1.320312 7.894531 -0.707031 7.90625 0 L 5.296875 0 L 1.984375 -6.140625 L 1.734375 -6.140625 C 1.734375 -5.734375 1.734375 -5.375 1.734375 -5.0625 C 1.734375 -4.757812 1.734375 -4.460938 1.734375 -4.171875 C 1.734375 -3.878906 1.734375 -3.550781 1.734375 -3.1875 C 1.734375 -2.820312 1.738281 -2.382812 1.75 -1.875 C 1.757812 -1.363281 1.769531 -0.738281 1.78125 0 Z M 0.53125 0 "/></g></g></g><g fill="#302f2f" fill-opacity="1"><g transform="translate(99.616342, 32.396911)"><g><path d="M 3.671875 0.140625 C 3.140625 0.140625 2.59375 0.0859375 2.03125 -0.015625 C 1.46875 -0.117188 0.9375 -0.253906 0.4375 -0.421875 L 0.359375 -2.953125 C 0.773438 -2.859375 1.265625 -2.765625 1.828125 -2.671875 C 2.390625 -2.578125 3.007812 -2.53125 3.6875 -2.53125 C 4.351562 -2.53125 4.800781 -2.585938 5.03125 -2.703125 C 5.269531 -2.828125 5.390625 -2.984375 5.390625 -3.171875 C 5.390625 -3.304688 5.34375 -3.414062 5.25 -3.5 C 5.15625 -3.59375 4.972656 -3.664062 4.703125 -3.71875 C 4.429688 -3.78125 4.03125 -3.820312 3.5 -3.84375 C 2.820312 -3.875 2.238281 -3.945312 1.75 -4.0625 C 1.257812 -4.175781 0.878906 -4.382812 0.609375 -4.6875 C 0.347656 -5 0.21875 -5.46875 0.21875 -6.09375 C 0.21875 -6.414062 0.28125 -6.738281 0.40625 -7.0625 C 0.53125 -7.394531 0.734375 -7.691406 1.015625 -7.953125 C 1.296875 -8.222656 1.664062 -8.4375 2.125 -8.59375 C 2.59375 -8.757812 3.15625 -8.84375 3.8125 -8.84375 C 4.164062 -8.84375 4.523438 -8.816406 4.890625 -8.765625 C 5.265625 -8.710938 5.617188 -8.644531 5.953125 -8.5625 C 6.285156 -8.476562 6.566406 -8.394531 6.796875 -8.3125 L 6.875 -5.65625 C 6.625 -5.726562 6.226562 -5.8125 5.6875 -5.90625 C 5.144531 -6.007812 4.484375 -6.0625 3.703125 -6.0625 C 3.085938 -6.0625 2.660156 -6.007812 2.421875 -5.90625 C 2.191406 -5.8125 2.078125 -5.671875 2.078125 -5.484375 C 2.078125 -5.378906 2.113281 -5.285156 2.1875 -5.203125 C 2.269531 -5.128906 2.429688 -5.066406 2.671875 -5.015625 C 2.921875 -4.960938 3.296875 -4.921875 3.796875 -4.890625 C 4.492188 -4.847656 5.101562 -4.769531 5.625 -4.65625 C 6.15625 -4.539062 6.5625 -4.320312 6.84375 -4 C 7.132812 -3.6875 7.28125 -3.210938 7.28125 -2.578125 C 7.28125 -2.054688 7.175781 -1.625 6.96875 -1.28125 C 6.769531 -0.9375 6.492188 -0.660156 6.140625 -0.453125 C 5.796875 -0.242188 5.410156 -0.09375 4.984375 0 C 4.554688 0.09375 4.117188 0.140625 3.671875 0.140625 Z M 3.671875 0.140625 "/></g></g></g><g clip-path="url(#cbdfc03204)"><path fill="#e0e0e0" d="M 92.109375 23.589844 C 91.53125 23.589844 91.058594 23.121094 91.058594 22.539062 C 91.058594 22.492188 91.0625 22.445312 91.066406 22.394531 L 91.074219 22.34375 L 93.144531 22.34375 L 93.152344 22.394531 C 93.160156 22.445312 93.160156 22.492188 93.160156 22.539062 C 93.160156 23.121094 92.691406 23.589844 92.109375 23.589844 Z M 91.183594 22.464844 C 91.179688 22.488281 91.179688 22.515625 91.179688 22.539062 C 91.179688 23.050781 91.597656 23.46875 92.109375 23.46875 C 92.621094 23.46875 93.039062 23.050781 93.039062 22.539062 C 93.039062 22.515625 93.039062 22.488281 93.035156 22.464844 Z M 91.183594 22.464844 " fill-opacity="1" fill-rule="nonzero"/></g><g clip-path="url(#4156d11269)"><path fill="#e0e0e0" d="M 89.523438 23.589844 C 88.945312 23.589844 88.472656 23.121094 88.472656 22.539062 C 88.472656 22.492188 88.476562 22.445312 88.484375 22.394531 L 88.492188 22.34375 L 90.558594 22.34375 L 90.566406 22.394531 C 90.574219 22.445312 90.578125 22.492188 90.578125 22.539062 C 90.578125 23.121094 90.105469 23.589844 89.523438 23.589844 Z M 88.597656 22.464844 C 88.597656 22.488281 88.59375 22.515625 88.59375 22.539062 C 88.59375 23.050781 89.011719 23.46875 89.523438 23.46875 C 90.039062 23.46875 90.453125 23.050781 90.453125 22.539062 C 90.453125 22.515625 90.453125 22.488281 90.453125 22.464844 Z M 88.597656 22.464844 " fill-opacity="1" fill-rule="nonzero"/></g><g clip-path="url(#6716628d99)"><path fill="#e0e0e0" d="M 86.941406 23.589844 C 86.359375 23.589844 85.890625 23.121094 85.890625 22.539062 C 85.890625 22.492188 85.890625 22.445312 85.898438 22.394531 L 85.90625 22.34375 L 87.976562 22.34375 L 87.980469 22.394531 C 87.988281 22.445312 87.992188 22.492188 87.992188 22.539062 C 87.992188 23.121094 87.519531 23.589844 86.941406 23.589844 Z M 86.011719 22.464844 C 86.011719 22.488281 86.011719 22.515625 86.011719 22.539062 C 86.011719 23.050781 86.425781 23.46875 86.941406 23.46875 C 87.453125 23.46875 87.871094 23.050781 87.871094 22.539062 C 87.871094 22.515625 87.871094 22.488281 87.867188 22.464844 Z M 86.011719 22.464844 " fill-opacity="1" fill-rule="nonzero"/></g><g clip-path="url(#c0d781e893)"><path fill="#e0e0e0" d="M 84.355469 23.589844 C 83.777344 23.589844 83.304688 23.121094 83.304688 22.539062 C 83.304688 22.492188 83.308594 22.445312 83.3125 22.394531 L 83.320312 22.34375 L 85.390625 22.34375 L 85.398438 22.394531 C 85.402344 22.445312 85.40625 22.492188 85.40625 22.539062 C 85.40625 23.121094 84.9375 23.589844 84.355469 23.589844 Z M 83.429688 22.464844 C 83.425781 22.488281 83.425781 22.515625 83.425781 22.539062 C 83.425781 23.050781 83.84375 23.46875 84.355469 23.46875 C 84.867188 23.46875 85.285156 23.050781 85.285156 22.539062 C 85.285156 22.515625 85.285156 22.488281 85.28125 22.464844 Z M 83.429688 22.464844 " fill-opacity="1" fill-rule="nonzero"/></g><g clip-path="url(#7d82b6c88d)"><path fill="#e0e0e0" d="M 81.769531 23.589844 C 81.191406 23.589844 80.71875 23.121094 80.71875 22.539062 C 80.71875 22.492188 80.722656 22.445312 80.730469 22.394531 L 80.734375 22.34375 L 82.804688 22.34375 L 82.8125 22.394531 C 82.820312 22.445312 82.824219 22.492188 82.824219 22.539062 C 82.824219 23.121094 82.351562 23.589844 81.769531 23.589844 Z M 80.84375 22.464844 C 80.84375 22.488281 80.839844 22.515625 80.839844 22.539062 C 80.839844 23.050781 81.257812 23.46875 81.769531 23.46875 C 82.285156 23.46875 82.699219 23.050781 82.699219 22.539062 C 82.699219 22.515625 82.699219 22.488281 82.699219 22.464844 Z M 80.84375 22.464844 " fill-opacity="1" fill-rule="nonzero"/></g><g clip-path="url(#eee216da5a)"><g clip-path="url(#5f7130e454)"><g clip-path="url(#6c7c62effa)"><path fill="#525252" d="M 93.953125 33.597656 L 95.125 36.984375 L 91.40625 38.273438 L 87.488281 36.371094 L 88.996094 35.847656 L 91.585938 37.105469 L 93.777344 36.347656 L 92.566406 32.855469 Z M 93.953125 33.597656 " fill-opacity="1" fill-rule="nonzero"/></g></g></g><g clip-path="url(#8b0aabad75)"><g clip-path="url(#efa3538c25)"><g clip-path="url(#4f71bd92e2)"><path fill="#e0e0e0" d="M 92.1875 38.425781 L 96.011719 37.101562 L 94.804688 33.613281 L 93.21875 32.765625 L 94.46875 36.371094 L 92.382812 37.09375 L 89.792969 35.835938 L 88.078125 36.429688 Z M 95.816406 37.007812 L 92.199219 38.261719 L 88.480469 36.453125 L 89.78125 36.003906 L 92.371094 37.261719 L 94.664062 36.464844 L 93.496094 33.085938 L 94.679688 33.722656 Z M 95.816406 37.007812 " fill-opacity="1" fill-rule="nonzero"/></g></g></g><g clip-path="url(#bd3293078a)"><path fill="#525252" d="M 24.144531 30.597656 L 20.804688 33.9375 L 20.804688 31.003906 L 17.636719 31.003906 L 20.980469 27.660156 L 20.980469 28.726562 L 19.484375 30.222656 L 21.449219 30.222656 L 21.449219 32.332031 L 23.1875 30.589844 Z M 24.144531 30.597656 " fill-opacity="1" fill-rule="nonzero"/><path fill="#e0e0e0" d="M 20.5 33.882812 L 20.5 30.859375 L 17.242188 30.859375 L 20.800781 27.300781 L 20.800781 28.542969 L 19.390625 29.953125 L 21.269531 29.953125 L 21.269531 31.972656 L 22.917969 30.320312 L 24.050781 30.328125 Z M 17.546875 30.734375 L 20.625 30.734375 L 20.625 33.578125 L 23.75 30.449219 L 22.96875 30.449219 L 21.140625 32.277344 L 21.140625 30.078125 L 19.089844 30.078125 L 20.671875 28.492188 L 20.671875 27.605469 Z M 17.546875 30.734375 " fill-opacity="1" fill-rule="nonzero"/></g><g clip-path="url(#c942979ef2)"><path fill="#e0e0e0" d="M 70.996094 33.738281 L 72.238281 33.019531 L 72.238281 34.453125 Z M 70.996094 33.738281 " fill-opacity="1" fill-rule="nonzero"/></g><g clip-path="url(#655dff536c)"><path fill="#e0e0e0" d="M 72.230469 33.738281 L 73.472656 33.019531 L 73.472656 34.453125 Z M 72.230469 33.738281 " fill-opacity="1" fill-rule="nonzero"/></g><g clip-path="url(#1fa5bd921b)"><path fill="#e0e0e0" d="M 73.464844 33.738281 L 74.707031 33.019531 L 74.707031 34.453125 Z M 73.464844 33.738281 " fill-opacity="1" fill-rule="nonzero"/></g><g clip-path="url(#ca7a54faf0)"><path fill="#e0e0e0" d="M 74.699219 33.738281 L 75.941406 33.019531 L 75.941406 34.453125 Z M 74.699219 33.738281 " fill-opacity="1" fill-rule="nonzero"/></g><g clip-path="url(#a071d2524b)"><path fill="#e0e0e0" d="M 75.9375 33.738281 L 77.179688 33.019531 L 77.179688 34.453125 Z M 75.9375 33.738281 " fill-opacity="1" fill-rule="nonzero"/></g><g clip-path="url(#c30864e732)"><path fill="#e0e0e0" d="M 77.171875 33.738281 L 78.414062 33.019531 L 78.414062 34.453125 Z M 77.171875 33.738281 " fill-opacity="1" fill-rule="nonzero"/></g><g clip-path="url(#90c0db49bd)"><path fill="#e0e0e0" d="M 78.40625 33.738281 L 79.648438 33.019531 L 79.648438 34.453125 Z M 78.40625 33.738281 " fill-opacity="1" fill-rule="nonzero"/></g><g clip-path="url(#961ef4595a)"><path fill="#d4a244" d="M 24.949219 20.097656 L 19.035156 20.097656 L 19.035156 19.355469 L 24.949219 19.355469 Z M 19.140625 19.996094 L 24.84375 19.996094 L 24.84375 19.460938 L 19.140625 19.460938 Z M 19.140625 19.996094 " fill-opacity="1" fill-rule="nonzero"/></g><g clip-path="url(#1622c9a654)"><path fill="#d4a244" d="M 24.949219 18.472656 L 19.035156 18.472656 L 19.035156 17.730469 L 24.949219 17.730469 Z M 19.140625 18.367188 L 24.84375 18.367188 L 24.84375 17.835938 L 19.140625 17.835938 Z M 19.140625 18.367188 " fill-opacity="1" fill-rule="nonzero"/></g><g clip-path="url(#c41788c74c)"><path fill="#d4a244" d="M 24.949219 16.847656 L 19.035156 16.847656 L 19.035156 16.105469 L 24.949219 16.105469 Z M 19.140625 16.742188 L 24.84375 16.742188 L 24.84375 16.210938 L 19.140625 16.210938 Z M 19.140625 16.742188 " fill-opacity="1" fill-rule="nonzero"/></g></svg>